<svg xmlns="http://www.w3.org/2000/svg" viewBox="0 0 750 420" font-family="Arial, sans-serif">
  <!-- Título -->
  <text x="375" y="22" text-anchor="middle" font-size="13" font-weight="bold" fill="#1e293b">Scanner Noológico — Cobertura Epistemológica por Dimensão</text>
  <text x="375" y="38" text-anchor="middle" font-size="10" fill="#64748b">10 dimensões × 92 categorias | Cobertura global: 64/92 (70%)</text>

  <!-- Barras horizontais -->
  <!-- D1 -->
  <text x="165" y="60" text-anchor="end" font-size="10" fill="#334155">D1 — Paradigmática</text>
  <rect x="170" y="48" width="440" height="18" rx="3" fill="#e2e8f0"/>
  <rect x="170" y="48" width="330" height="18" rx="3" fill="#4ade80"/>
  <text x="620" y="61" font-size="10" fill="#166534" font-weight="bold">6/8 (75%)</text>

  <!-- D2 -->
  <text x="165" y="88" text-anchor="end" font-size="10" fill="#334155">D2 — Teórica</text>
  <rect x="170" y="76" width="440" height="18" rx="3" fill="#e2e8f0"/>
  <rect x="170" y="76" width="330" height="18" rx="3" fill="#4ade80"/>
  <text x="620" y="89" font-size="10" fill="#166534" font-weight="bold">9/12 (75%)</text>

  <!-- D3 -->
  <text x="165" y="116" text-anchor="end" font-size="10" fill="#334155">D3 — Metodológica</text>
  <rect x="170" y="104" width="440" height="18" rx="3" fill="#e2e8f0"/>
  <rect x="170" y="104" width="352" height="18" rx="3" fill="#4ade80"/>
  <text x="620" y="117" font-size="10" fill="#166534" font-weight="bold">8/10 (80%)</text>

  <!-- D4 -->
  <text x="165" y="144" text-anchor="end" font-size="10" fill="#334155">D4 — Nível Sistêmico</text>
  <rect x="170" y="132" width="440" height="18" rx="3" fill="#e2e8f0"/>
  <rect x="170" y="132" width="330" height="18" rx="3" fill="#4ade80"/>
  <text x="620" y="145" font-size="10" fill="#166534" font-weight="bold">6/8 (75%)</text>

  <!-- D5 -->
  <text x="165" y="172" text-anchor="end" font-size="10" fill="#334155">D5 — Temporal</text>
  <rect x="170" y="160" width="440" height="18" rx="3" fill="#e2e8f0"/>
  <rect x="170" y="160" width="295" height="18" rx="3" fill="#fbbf24"/>
  <text x="620" y="173" font-size="10" fill="#92400e" font-weight="bold">4/6 (67%)</text>

  <!-- D6 -->
  <text x="165" y="200" text-anchor="end" font-size="10" fill="#334155">D6 — Diversidade de Dados</text>
  <rect x="170" y="188" width="440" height="18" rx="3" fill="#e2e8f0"/>
  <rect x="170" y="188" width="308" height="18" rx="3" fill="#4ade80"/>
  <text x="620" y="201" font-size="10" fill="#166534" font-weight="bold">7/10 (70%)</text>

  <!-- D7 -->
  <text x="165" y="228" text-anchor="end" font-size="10" fill="#334155">D7 — Geográfica/Cultural</text>
  <rect x="170" y="216" width="440" height="18" rx="3" fill="#e2e8f0"/>
  <rect x="170" y="216" width="277" height="18" rx="3" fill="#fbbf24"/>
  <text x="620" y="229" font-size="10" fill="#92400e" font-weight="bold">5/8 (63%)</text>

  <!-- D8 -->
  <text x="165" y="256" text-anchor="end" font-size="10" fill="#334155">D8 — Populacional</text>
  <rect x="170" y="244" width="440" height="18" rx="3" fill="#e2e8f0"/>
  <rect x="170" y="244" width="220" height="18" rx="3" fill="#f87171"/>
  <text x="620" y="257" font-size="10" fill="#991b1b" font-weight="bold">6/12 (50%)</text>

  <!-- D9 -->
  <text x="165" y="284" text-anchor="end" font-size="10" fill="#334155">D9 — Ética/Regulatória</text>
  <rect x="170" y="272" width="440" height="18" rx="3" fill="#e2e8f0"/>
  <rect x="170" y="272" width="330" height="18" rx="3" fill="#4ade80"/>
  <text x="620" y="285" font-size="10" fill="#166534" font-weight="bold">6/8 (75%)</text>

  <!-- D10 -->
  <text x="165" y="312" text-anchor="end" font-size="10" fill="#334155">D10 — Translacional</text>
  <rect x="170" y="300" width="440" height="18" rx="3" fill="#e2e8f0"/>
  <rect x="170" y="300" width="308" height="18" rx="3" fill="#4ade80"/>
  <text x="620" y="313" font-size="10" fill="#166534" font-weight="bold">7/10 (70%)</text>

  <!-- Legenda -->
  <rect x="170" y="340" width="14" height="14" rx="2" fill="#4ade80"/>
  <text x="192" y="352" font-size="10" fill="#475569">Cobertura adequada</text>
  <rect x="310" y="340" width="14" height="14" rx="2" fill="#fbbf24"/>
  <text x="332" y="352" font-size="10" fill="#475569">Cobertura parcial</text>
  <rect x="450" y="340" width="14" height="14" rx="2" fill="#f87171"/>
  <text x="472" y="352" font-size="10" fill="#475569">Ponto cego crítico</text>

  <!-- Resumo -->
  <text x="375" y="385" text-anchor="middle" font-size="10" fill="#64748b">28 pontos cegos identificados | 3 mitigados nesta dissertação | Expansão 5D: cobertura 12% → 35% (+192%) | Score Noológico: 100/100</text>
</svg>
