<svg xmlns="http://www.w3.org/2000/svg" viewBox="0 0 600 420" font-family="Arial, sans-serif">
  <text x="300" y="22" text-anchor="middle" font-size="14" font-weight="bold" fill="#1e293b">Cobertura Epistemologica da Dissertacao</text>
  <text x="300" y="38" text-anchor="middle" font-size="10" fill="#64748b">NoologicalScanner v3.0 | 102.972 caracteres | 15.006 palavras | 68/92 categorias (74%)</text>

  <text x="140" y="72" text-anchor="end" font-size="10" fill="#334155">Paradigmas</text><rect x="150" y="58" width="400" height="20" rx="3" fill="#f1f5f9"/><rect x="150" y="58" width="400" height="20" rx="3" fill="#4ade80"/><text x="555" y="72" font-size="9" fill="#166534" font-weight="bold">100%</text>
  <text x="140" y="104" text-anchor="end" font-size="10" fill="#334155">Dominios</text><rect x="150" y="90" width="400" height="20" rx="3" fill="#f1f5f9"/><rect x="150" y="90" width="400" height="20" rx="3" fill="#4ade80"/><text x="555" y="104" font-size="9" fill="#166534" font-weight="bold">100%</text>
  <text x="140" y="136" text-anchor="end" font-size="10" fill="#334155">Niveis de Analise</text><rect x="150" y="122" width="400" height="20" rx="3" fill="#f1f5f9"/><rect x="150" y="122" width="300" height="20" rx="3" fill="#4ade80"/><text x="455" y="136" font-size="9" fill="#166534" font-weight="bold">75%</text>
  <text x="140" y="168" text-anchor="end" font-size="10" fill="#334155">Dados</text><rect x="150" y="154" width="400" height="20" rx="3" fill="#f1f5f9"/><rect x="150" y="154" width="300" height="20" rx="3" fill="#4ade80"/><text x="455" y="168" font-size="9" fill="#166534" font-weight="bold">75%</text>
  <text x="140" y="200" text-anchor="end" font-size="10" fill="#334155">Populacao</text><rect x="150" y="186" width="400" height="20" rx="3" fill="#f1f5f9"/><rect x="150" y="186" width="300" height="20" rx="3" fill="#4ade80"/><text x="455" y="200" font-size="9" fill="#166534" font-weight="bold">75%</text>
  <text x="140" y="232" text-anchor="end" font-size="10" fill="#334155">Metodos</text><rect x="150" y="218" width="400" height="20" rx="3" fill="#f1f5f9"/><rect x="150" y="218" width="280" height="20" rx="3" fill="#fbbf24"/><text x="435" y="232" font-size="9" fill="#92400e" font-weight="bold">70%</text>
  <text x="140" y="264" text-anchor="end" font-size="10" fill="#334155">Raciocinio</text><rect x="150" y="250" width="400" height="20" rx="3" fill="#f1f5f9"/><rect x="150" y="250" width="280" height="20" rx="3" fill="#fbbf24"/><text x="435" y="264" font-size="9" fill="#92400e" font-weight="bold">70%</text>
  <text x="140" y="296" text-anchor="end" font-size="10" fill="#334155">Temporalidade</text><rect x="150" y="282" width="400" height="20" rx="3" fill="#f1f5f9"/><rect x="150" y="282" width="268" height="20" rx="3" fill="#fbbf24"/><text x="423" y="296" font-size="9" fill="#92400e" font-weight="bold">67%</text>
  <text x="140" y="328" text-anchor="end" font-size="10" fill="#334155">Teorias</text><rect x="150" y="314" width="400" height="20" rx="3" fill="#f1f5f9"/><rect x="150" y="314" width="240" height="20" rx="3" fill="#f87171"/><text x="395" y="328" font-size="9" fill="#991b1b" font-weight="bold">60%</text>
  <text x="140" y="360" text-anchor="end" font-size="10" fill="#334155">Teoria dos Jogos</text><rect x="150" y="346" width="400" height="20" rx="3" fill="#f1f5f9"/><rect x="150" y="346" width="200" height="20" rx="3" fill="#f87171"/><text x="355" y="360" font-size="9" fill="#991b1b" font-weight="bold">50%</text>

  <rect x="30" y="380" width="540" height="30" rx="6" fill="#f8fafc" stroke="#e2e8f0"/>
  <text x="50" y="399" font-size="10" fill="#334155"><tspan font-weight="bold">Grau: A — Ampla Cobertura Epistemologica (74%)</tspan> | 0 pontos cegos criticos | 4 gaps em aprofundamento</text>
</svg>